<?xml version="1.0" encoding="UTF-8" standalone="no"?>
<svg width="180px" height="235px" viewBox="0 0 180 235" version="1.1" xmlns="http://www.w3.org/2000/svg" xmlns:xlink="http://www.w3.org/1999/xlink" xmlns:sketch="http://www.bohemiancoding.com/sketch/ns">
    <!-- Generator: Sketch 3.4 (15575) - http://www.bohemiancoding.com/sketch -->
    <title>Path 1</title>
    <desc>Created with Sketch.</desc>
    <defs></defs>
    <g id="Page-1" stroke="none" stroke-width="1" fill="none" fill-rule="evenodd" sketch:type="MSPage">
        <path d="M77.7773429,229.824218 C48.8214909,227.704862 17.6835938,211.726562 17.6835938,211.726562 L42.4257812,165.964844 C42.4257812,165.964844 79.7109375,195.3125 113.589844,173.949219 C113.992187,172.769531 129.800781,153.285156 90.8085937,145.421875 C51.8164062,137.558594 -7.625,128.65625 7.53125,55.5898437 C7.36328125,55.0625 19.2539071,13.734375 77.7773437,4.7890625 C78.7773437,4.9453125 120.621095,2.25 148.582031,22.9609375 C149.886719,25.265625 126.3125,62.3828125 126.3125,62.3828125 C126.3125,62.3828125 86.7656259,39.5429694 62.109375,64.3398438 C61.4570312,66.8671875 52.5078134,78.8984381 87.0273437,87.6210938 C121.546874,96.3437494 174.640626,95.4726569 174.640625,159.507812 C175.25,160.507812 174.640624,194.152343 134.273438,220.113281 C134.685726,220.288849 107.318699,231.986429 77.7773429,229.824218 Z" id="Path-1" stroke="#FFFFFF" stroke-width="9" sketch:type="MSShapeGroup"></path>
    </g>
</svg>